<!DOCTYPE svg PUBLIC "-//W3C//DTD SVG 20010904//EN" "http://www.w3.org/TR/2001/REC-SVG-20010904/DTD/svg10.dtd">
<svg version="1.0" xmlns="http://www.w3.org/2000/svg" width="355px" height="464px" viewBox="0 0 3550 4640" preserveAspectRatio="xMidYMid meet">
<g id="layer101" fill="#52b8bf" stroke="none">
<path d="M0 2320 l0 -2320 1775 0 1775 0 0 2320 0 2320 -1775 0 -1775 0 0 -2320z"/>
</g>
<g id="layer102" fill="#3fbfd2" stroke="none">
<path d="M0 2320 l0 -2320 1775 0 1775 0 0 2320 0 2320 -1775 0 -1775 0 0 -2320z m977 1734 c-3 -3 -12 -4 -19 -1 -8 3 -5 6 6 6 11 1 17 -2 13 -5z m-37 -8 c0 -2 -8 -10 -17 -17 -16 -13 -17 -12 -4 4 13 16 21 21 21 13z m1053 -43 c-7 -2 -19 -2 -25 0 -7 3 -2 5 12 5 14 0 19 -2 13 -5z m-436 -65 c-3 -8 -6 -5 -6 6 -1 11 2 17 5 13 3 -3 4 -12 1 -19z"/>
</g>
<g id="layer103" fill="#4dc0d6" stroke="none">
<path d="M0 2320 l0 -2320 1775 0 1775 0 0 2320 0 2320 -1775 0 -1775 0 0 -2320z m977 1734 c-3 -3 -12 -4 -19 -1 -8 3 -5 6 6 6 11 1 17 -2 13 -5z m-37 -8 c0 -2 -8 -10 -17 -17 -16 -13 -17 -12 -4 4 13 16 21 21 21 13z m1053 -43 c-7 -2 -19 -2 -25 0 -7 3 -2 5 12 5 14 0 19 -2 13 -5z m-476 -10 c-4 -3 -10 -3 -14 0 -3 4 0 7 7 7 7 0 10 -3 7 -7z m-317 -33 c6 -11 7 -20 2 -20 -6 0 -12 9 -15 20 -3 11 -3 20 -1 20 2 0 8 -9 14 -20z m141 3 c13 -16 12 -17 -3 -4 -17 13 -22 21 -14 21 2 0 10 -8 17 -17z m785 -31 c-8 -7 -25 8 -37 31 -11 21 -10 21 15 -2 14 -14 24 -26 22 -29z m772 21 c15 -16 21 -22 12 -15 -9 6 -20 10 -23 7 -4 -3 -5 -2 -2 2 3 4 -5 13 -17 20 -13 7 -17 12 -11 13 7 0 25 -12 41 -27z m-175 2 c-3 -9 -8 -14 -10 -11 -3 3 -2 9 2 15 9 16 15 13 8 -4z m-1166 -17 c-3 -8 -6 -5 -6 6 -1 11 2 17 5 13 3 -3 4 -12 1 -19z m738 12 c3 -5 4 -10 1 -10 -3 0 -8 5 -11 10 -3 6 -4 10 -1 10 3 0 8 -4 11 -10z m-1508 -36 c-3 -3 -12 -4 -19 -1 -8 3 -5 6 6 6 11 1 17 -2 13 -5z m1840 -191 c-4 -3 -10 -3 -14 0 -3 4 0 7 7 7 7 0 10 -3 7 -7z m223 -43 c-20 -13 -33 -13 -25 0 3 6 14 10 23 10 15 0 15 -2 2 -10z m-603 -6 c-3 -3 -12 -4 -19 -1 -8 3 -5 6 6 6 11 1 17 -2 13 -5z m-850 -140 c-3 -3 -12 -4 -19 -1 -8 3 -5 6 6 6 11 1 17 -2 13 -5z m596 -23 c4 -4 -6 -6 -23 -3 -16 2 -30 9 -30 14 0 10 39 1 53 -11z"/>
</g>
<g id="layer104" fill="#41c1e3" stroke="none">
<path d="M0 2320 l0 -2320 1775 0 1775 0 0 2320 0 2320 -1775 0 -1775 0 0 -2320z m1000 1720 c14 -11 21 -20 15 -19 -31 4 -57 -4 -84 -26 l-30 -26 25 -36 c33 -49 46 -102 45 -194 -1 -139 -53 -215 -161 -233 -19 -3 -28 -3 -20 1 44 19 86 69 100 118 15 53 9 212 -10 263 -11 30 -15 33 -39 26 -14 -5 -45 -8 -67 -7 -51 2 -54 -5 -54 -127 1 -78 11 -125 45 -202 11 -27 -37 -23 -63 5 -39 41 -55 96 -56 192 -1 78 2 97 24 140 34 66 75 88 151 81 54 -5 57 -4 88 29 36 40 56 43 91 15z m1065 -52 c11 -6 32 -21 46 -35 l26 -24 36 36 c47 47 94 49 130 5 28 -32 37 -37 37 -18 0 21 32 48 57 48 13 0 35 -11 48 -25 l25 -24 0 24 c0 21 5 25 30 25 l30 0 0 -130 c0 -121 1 -130 21 -141 12 -6 36 -8 55 -4 39 7 56 -14 34 -40 -19 -23 -57 -18 -85 12 l-25 28 0 -28 c0 -23 -4 -27 -30 -27 l-30 0 0 104 c0 56 -5 117 -11 135 -14 41 -42 57 -63 35 -13 -12 -16 -41 -16 -145 l0 -129 -30 0 c-22 0 -30 5 -31 18 0 9 0 63 1 119 1 97 0 104 -24 128 -30 30 -49 32 -76 5 -16 -16 -20 -33 -20 -93 0 -98 22 -141 74 -145 31 -3 35 -6 25 -18 -19 -23 -82 -18 -106 9 -37 39 -55 89 -59 156 -5 83 -22 103 -97 109 -111 9 -156 -49 -157 -199 0 -143 44 -239 109 -239 47 0 64 20 60 73 -5 52 10 67 37 40 19 -19 13 -67 -12 -94 -24 -27 -79 -42 -125 -34 -55 9 -104 60 -124 127 -15 50 -22 208 -11 227 8 12 -31 88 -49 94 -35 14 -45 -3 -45 -73 0 -57 -4 -71 -25 -94 -13 -14 -34 -26 -47 -26 -20 -1 -17 -6 27 -45 44 -39 47 -45 27 -45 -15 0 -45 21 -83 57 l-59 56 0 -121 0 -122 -29 0 -29 0 -4 189 c-3 169 -5 191 -22 210 -23 25 -30 26 -50 5 -13 -12 -16 -41 -16 -145 l0 -129 -30 0 -30 0 0 121 c0 122 -6 152 -36 163 -37 14 -44 -11 -44 -150 l0 -134 -30 0 -30 0 0 120 c0 115 -1 122 -25 145 -28 29 -38 31 -59 9 -13 -12 -16 -41 -16 -145 l0 -129 -30 0 -30 0 0 130 c0 139 8 171 47 189 39 18 63 13 94 -18 16 -16 29 -26 29 -22 0 17 43 51 64 51 12 0 33 -11 45 -24 l22 -24 25 25 c20 20 32 24 56 19 17 -3 39 -16 49 -28 l19 -21 0 26 c0 23 4 27 30 27 l30 0 0 -80 c0 -67 3 -83 20 -100 45 -45 80 -13 80 73 0 70 24 107 71 107 31 0 79 -49 79 -81 0 -24 17 -25 24 -1 23 71 151 110 231 70z m820 -22 c19 -15 42 -41 51 -59 l17 -32 -30 32 c-54 58 -125 66 -158 20 -28 -41 -20 -63 29 -76 120 -30 132 -181 15 -181 -120 0 -175 217 -76 303 27 24 39 28 74 24 26 -3 57 -15 78 -31z m-2292 -270 c-12 -76 35 -142 128 -176 l54 -21 -45 7 c-103 14 -185 82 -185 154 0 39 18 70 41 70 9 0 11 -10 7 -34z m821 -108 c22 -35 -27 -74 -59 -48 -20 17 -19 47 3 59 23 14 42 10 56 -11z"/>
</g>
<g id="layer105" fill="#69cadd" stroke="none">
<path d="M0 2320 l0 -2320 1775 0 1775 0 0 2320 0 2320 -1775 0 -1775 0 0 -2320z m1000 1720 c14 -11 21 -20 15 -19 -31 4 -57 -4 -84 -26 l-30 -26 25 -36 c33 -49 46 -102 45 -194 -1 -109 -27 -170 -90 -207 -119 -70 -315 -3 -336 114 -6 33 13 77 35 82 12 2 15 -9 15 -52 0 -88 56 -146 148 -154 68 -5 108 14 133 65 24 47 27 235 5 296 -12 35 -15 38 -40 31 -14 -5 -45 -8 -67 -7 -51 2 -54 -5 -54 -127 1 -78 11 -125 45 -202 11 -27 -37 -23 -63 5 -39 41 -55 96 -56 192 -1 78 2 97 24 140 34 66 75 88 151 81 54 -5 57 -4 88 29 36 40 56 43 91 15z m1065 -52 c11 -6 32 -21 46 -35 l26 -24 36 36 c47 47 94 49 130 5 28 -32 37 -37 37 -18 0 21 32 48 57 48 13 0 35 -11 48 -25 l25 -24 0 24 c0 21 5 25 30 25 l30 0 0 -130 c0 -121 1 -130 21 -141 12 -6 36 -8 55 -4 39 7 56 -14 34 -40 -19 -23 -57 -18 -85 12 l-25 28 0 -28 c0 -23 -4 -27 -30 -27 l-30 0 0 104 c0 56 -5 117 -11 135 -14 41 -42 57 -63 35 -13 -12 -16 -41 -16 -145 l0 -129 -30 0 c-22 0 -30 5 -31 18 0 9 0 63 1 119 1 97 0 104 -24 128 -30 30 -49 32 -76 5 -16 -16 -20 -33 -20 -93 0 -98 22 -141 74 -145 31 -3 35 -6 25 -18 -19 -23 -82 -18 -106 9 -37 39 -55 89 -59 156 -5 83 -22 103 -97 109 -111 9 -156 -49 -157 -199 0 -143 44 -239 109 -239 47 0 64 20 60 73 -5 52 10 67 37 40 19 -19 13 -67 -12 -94 -24 -27 -79 -42 -125 -34 -55 9 -104 60 -124 127 -15 50 -22 208 -11 227 8 12 -31 88 -49 94 -35 14 -45 -3 -45 -73 0 -57 -4 -71 -25 -94 -13 -14 -34 -26 -47 -26 -20 -1 -17 -6 27 -45 44 -39 47 -45 27 -45 -15 0 -45 21 -83 57 l-59 56 0 -121 0 -122 -29 0 -29 0 -4 189 c-3 169 -5 191 -22 210 -23 25 -30 26 -50 5 -13 -12 -16 -41 -16 -145 l0 -129 -30 0 -30 0 0 121 c0 122 -6 152 -36 163 -37 14 -44 -11 -44 -150 l0 -134 -30 0 -30 0 0 120 c0 115 -1 122 -25 145 -28 29 -38 31 -59 9 -13 -12 -16 -41 -16 -145 l0 -129 -30 0 -30 0 0 130 c0 139 8 171 47 189 39 18 63 13 94 -18 16 -16 29 -26 29 -22 0 17 43 51 64 51 12 0 33 -11 45 -24 l22 -24 25 25 c20 20 32 24 56 19 17 -3 39 -16 49 -28 l19 -21 0 26 c0 23 4 27 30 27 l30 0 0 -80 c0 -67 3 -83 20 -100 45 -45 80 -13 80 73 0 70 24 107 71 107 31 0 79 -49 79 -81 0 -24 17 -25 24 -1 23 71 151 110 231 70z m820 -22 c19 -15 42 -41 51 -59 l17 -32 -30 32 c-54 58 -125 66 -158 20 -28 -41 -20 -63 29 -76 120 -30 132 -181 15 -181 -120 0 -175 217 -76 303 27 24 39 28 74 24 26 -3 57 -15 78 -31z m-1471 -378 c22 -35 -27 -74 -59 -48 -20 17 -19 47 3 59 23 14 42 10 56 -11z"/>
<path d="M768 3949 c-28 -16 -21 -29 16 -29 39 0 67 24 40 34 -22 8 -36 7 -56 -5z"/>
<path d="M2752 3791 c8 -81 75 -136 97 -78 20 51 -14 108 -73 123 l-29 7 5 -52z"/>
</g>
<g id="layer106" fill="#ffffff" stroke="none">
<path d="M0 2320 l0 -2320 1775 0 1775 0 0 2320 0 2320 -1775 0 -1775 0 0 -2320z m1008 1728 c19 -19 15 -25 -20 -32 -18 -3 -42 -16 -55 -28 l-22 -21 19 -27 c32 -46 53 -146 47 -226 -6 -86 -32 -142 -84 -181 -33 -26 -44 -28 -122 -28 -69 0 -94 5 -127 22 -97 52 -136 147 -78 192 15 12 30 21 33 21 4 0 6 -26 4 -57 -6 -94 37 -143 137 -157 60 -9 107 15 134 69 39 74 18 330 -25 315 -8 -2 -36 -5 -64 -5 l-50 -1 -9 -54 c-15 -84 5 -192 52 -282 10 -20 -61 -6 -83 16 -60 60 -74 257 -25 345 32 56 66 73 142 70 51 -2 64 1 77 17 33 42 93 58 119 32z m194 -78 c11 -17 13 -17 31 6 24 31 76 33 102 4 l18 -20 19 20 c20 22 67 26 99 10 13 -7 19 -7 19 0 0 5 16 10 35 10 l35 0 0 -73 c0 -83 16 -117 56 -117 30 0 44 31 44 102 0 65 19 88 71 88 39 0 70 -26 84 -71 6 -18 9 -17 28 12 30 43 82 69 139 69 57 0 95 -13 129 -46 l26 -25 31 30 c40 40 101 43 137 7 l24 -24 16 24 c18 29 74 33 99 8 15 -14 16 -14 16 0 0 12 10 16 35 16 l35 0 0 -125 c0 -123 0 -125 26 -142 21 -13 30 -14 45 -5 27 17 49 4 49 -28 0 -46 -43 -53 -89 -15 l-30 26 -3 -23 c-2 -18 -9 -23 -33 -23 l-30 0 -5 127 c-4 101 -8 131 -22 144 -9 9 -23 14 -32 11 -13 -5 -16 -31 -18 -144 l-3 -138 -29 -3 c-16 -2 -32 2 -36 8 -6 9 -13 9 -30 0 -33 -18 -85 -4 -114 31 -31 36 -46 87 -46 155 0 41 -5 55 -26 75 -34 32 -119 34 -161 3 -56 -41 -77 -167 -49 -288 24 -101 78 -146 133 -111 23 16 25 21 20 67 -6 49 -6 49 21 46 23 -3 28 -8 30 -37 7 -69 -40 -111 -124 -111 -65 0 -107 30 -142 100 -24 50 -27 66 -28 170 -1 127 -14 173 -52 178 -21 3 -22 0 -22 -53 0 -78 -21 -124 -60 -131 -16 -4 -30 -10 -30 -14 0 -3 20 -21 45 -39 51 -37 57 -51 19 -51 -17 0 -44 18 -85 57 l-59 56 0 -123 c0 -107 -2 -121 -16 -116 -9 3 -24 6 -35 6 -18 0 -19 9 -19 184 0 164 -2 186 -18 207 -12 14 -25 20 -35 16 -14 -5 -17 -28 -19 -144 l-3 -138 -32 -2 -33 -1 0 114 c0 119 -14 174 -45 174 -27 0 -35 -38 -35 -165 l0 -126 -32 3 -33 3 -5 133 c-5 138 -10 151 -53 152 -28 0 -37 -42 -37 -171 l0 -119 -29 0 c-16 0 -31 5 -33 12 -3 7 -3 71 -1 143 4 141 15 173 64 186 31 7 77 -8 91 -31z m1674 9 c33 -20 81 -85 71 -96 -4 -3 -21 11 -40 31 -28 30 -41 36 -74 36 -42 0 -65 -17 -78 -58 -7 -23 -4 -25 49 -37 16 -3 41 -19 57 -35 23 -23 29 -37 29 -74 0 -125 -163 -108 -199 21 -25 87 -7 184 40 217 33 23 104 21 145 -5z m-1456 -389 c21 -38 -22 -80 -61 -60 -19 10 -27 59 -12 73 15 15 63 7 73 -13z m-803 -732 c12 -13 28 -47 37 -77 31 -106 96 -186 172 -211 62 -21 132 -7 271 55 404 179 488 205 696 212 154 6 247 -5 372 -44 135 -43 306 -138 435 -243 58 -47 313 -232 411 -298 43 -28 86 -63 98 -78 30 -39 28 -87 -6 -114 -25 -20 -36 -22 -108 -17 -99 7 -142 22 -386 135 -262 121 -391 163 -568 183 -102 12 -181 -1 -268 -42 -110 -52 -167 -127 -111 -145 42 -13 146 -5 260 20 164 35 166 36 248 25 95 -13 166 -45 229 -104 82 -77 102 -142 55 -186 -28 -26 -53 -28 -211 -14 -101 9 -132 2 -379 -86 -105 -37 -225 -75 -267 -83 -208 -43 -407 1 -614 138 -159 104 -279 244 -377 435 -82 162 -108 252 -114 399 -4 108 -2 125 13 142 26 28 85 27 112 -2z m1701 -1035 c50 -7 85 -42 126 -125 94 -193 28 -432 -152 -547 -130 -82 -326 -80 -450 4 -35 24 -37 24 -62 8 -132 -87 -283 -99 -423 -33 -77 36 -153 113 -190 193 -32 66 -51 168 -42 227 8 57 34 140 44 140 10 0 71 -21 71 -24 0 -1 -7 -24 -16 -50 -22 -63 -15 -184 13 -248 30 -65 95 -133 162 -165 49 -24 68 -28 146 -28 98 0 140 15 214 76 45 37 55 36 99 -2 64 -56 116 -74 217 -74 73 0 99 5 136 23 134 66 216 225 190 369 -16 81 -45 136 -115 211 -50 53 -56 64 -36 59 14 -4 44 -10 68 -14z m-433 -814 c109 -30 188 -136 189 -253 0 -186 -172 -309 -356 -254 -50 15 -122 78 -151 132 -29 55 -31 184 -3 236 63 120 190 175 321 139z"/>
<path d="M767 3943 c-13 -12 -7 -23 12 -23 26 0 51 10 51 21 0 10 -53 12 -63 2z"/>
<path d="M2219 3933 c-9 -10 -14 -42 -14 -87 0 -82 25 -139 64 -144 41 -6 51 14 51 105 0 80 -10 119 -34 135 -19 13 -53 9 -67 -9z"/>
<path d="M2754 3800 c11 -69 32 -102 64 -98 23 3 27 8 30 38 2 28 -3 41 -25 62 -15 14 -39 29 -52 33 -23 7 -24 6 -17 -35z"/>
</g>


</svg>